<svg xmlns="http://www.w3.org/2000/svg" aria-hidden="true" style="position:absolute;width:0;height:0;overflow:hidden">
  <defs>
    <symbol id="icon-mail" viewBox="0 0 32 32">
      <path d="M4.454 4.024c-.835.19-1.55.622-2.086 1.218l-.003.004a3.848 3.848 0 0 0-1.07 2.311l-.001.016c-.021.22-.028 4.192-.013 8.828l.026 8.425.145.427c.216.636.491 1.062 1.028 1.6.538.536.966.811 1.6 1.028l.427.145h22.987l.425-.145c.636-.216 1.064-.491 1.6-1.028.538-.538.813-.964 1.03-1.6l.145-.427.026-8.425c.015-4.636.008-8.608-.013-8.828a4.413 4.413 0 0 0-.516-1.623l.012.023c-.262-.448-1.062-1.248-1.51-1.508a4.846 4.846 0 0 0-.739-.335l-.035-.011-.425-.145-11.36-.009c-9.284-.008-11.418.004-11.68.06zm22.757 2.847c.233.115.521.384.521.488 0 .058-11.652 8.215-11.733 8.215-.055 0-11.499-7.976-11.672-8.134-.158-.147.241-.527.676-.646.198-.053 2.488-.064 11.104-.056l10.852.009.252.124zM9.702 14.643c3.081 2.155 5.702 3.957 5.824 4 .282.098.666.098.949 0 .122-.043 2.743-1.845 5.824-4-.918.553.915-.738 2.753-2.021l2.874-1.901c.013 0 .017 3.055.009 6.788l-.015 6.788-.136.265c-.174.33-.478.572-.842.659l-.009.002c-.382.083-21.483.083-21.865 0a1.289 1.289 0 0 1-.847-.654l-.003-.007-.137-.265-.013-6.788c-.008-3.733-.004-6.788.009-6.788s2.545 1.766 5.626 3.923z"/>
    </symbol>
    <symbol id="icon-phone" viewBox="0 0 32 32">
      <path d="M4.712 1.335a5.173 5.173 0 0 0-1.316.501l.027-.014c-.304.213-.57.439-.814.686l-.001.001c-.429.425-.55.585-.734.964-.456.943-.533 1.687-.326 3.166.666 4.759 2.49 9.126 5.461 13.067a27.722 27.722 0 0 0 5.271 5.291l.067.049c3.949 2.967 8.201 4.749 13.041 5.461 1.442.213 2.178.136 3.144-.329.375-.183.535-.303.96-.73.574-.58.796-.92 1.035-1.594l.166-.467.017-2.711c.017-2.592.011-2.729-.094-3.147a4.13 4.13 0 0 0-2.612-2.879l-.029-.009a11.029 11.029 0 0 0-1.073-.233l-.074-.01a17.174 17.174 0 0 1-2.871-.727l.121.037a9.267 9.267 0 0 0-1.132-.312l-.067-.012c-.928-.145-2.116.16-2.92.745-.124.092-.489.422-.813.732l-.585.567-.226-.149a19.816 19.816 0 0 1-5.423-5.329l-.043-.067-.297-.439.567-.587c.312-.324.642-.691.734-.815.589-.808.894-2.007.744-2.925a10.858 10.858 0 0 0-.347-1.275l.023.078a16.374 16.374 0 0 1-.675-2.644l-.014-.103a12.162 12.162 0 0 0-.263-1.234l.02.088a4.134 4.134 0 0 0-2.846-2.633l-.029-.006c-.395-.1-.58-.107-2.987-.102-1.41.004-2.664.026-2.786.049zM9.76 4.111c.356.088.65.309.832.606l.003.006c.073.132.168.512.256 1.011.186 1.075.412 1.976.727 2.904.446 1.31.446 1.31-.911 2.696-.597.608-1.09 1.158-1.15 1.28a1.363 1.363 0 0 0-.103.619v-.004c0 .386.011.424.258.853a27.769 27.769 0 0 0 1.981 2.886l-.046-.061c.74.928 2.558 2.746 3.486 3.486.757.602 2.061 1.496 2.825 1.935.429.247.467.258.853.258a1.368 1.368 0 0 0 .624-.107l-.009.003c.122-.06.672-.553 1.28-1.15 1.378-1.35 1.38-1.35 2.633-.928.93.312 1.958.57 2.963.745.86.149 1.112.245 1.333.506.339.403.324.28.324 2.85v2.347l-.132.265c-.173.321-.46.561-.805.669l-.01.003c-.265.072-1.133-.028-2.44-.279-3.432-.661-6.328-1.875-9.44-3.957a24.72 24.72 0 0 1-6.541-6.511l-.054-.085C6.133 13.42 4.815 9.972 4.292 5.943c-.104-.791-.075-.986.186-1.35a1.08 1.08 0 0 1 .68-.468l.007-.001c.326-.088 4.198-.102 4.595-.017z"/>
    </symbol>
    <symbol id="icon-user-converted" viewBox="0 0 32 32">
      <path d="M15.147 2.645c-1.321.235-2.287.634-3.204 1.323-1.257.945-2.106 2.257-2.507 3.872-.111.44-.126.634-.126 1.493 0 .86.015 1.052.126 1.495.646 2.594 2.475 4.425 5.071 5.071.44.109.634.126 1.493.126s1.052-.017 1.493-.126c2.596-.646 4.425-2.477 5.071-5.071.111-.442.126-.634.126-1.495 0-.858-.015-1.052-.126-1.493-.561-2.257-2.063-3.983-4.173-4.802-.706-.273-1.312-.38-2.231-.399a11.69 11.69 0 0 0-1.041.006l.028-.001zm1.915 2.908c1.25.318 2.391 1.466 2.729 2.744.156.585.156 1.485 0 2.072-.341 1.288-1.47 2.417-2.756 2.754a4.692 4.692 0 0 1-2.102-.006l.032.006c-1.001-.264-1.912-1-2.453-1.982-.567-1.033-.567-2.583 0-3.618.92-1.675 2.692-2.443 4.55-1.971zM9.813 18.648c-.575.102-1.072.231-1.553.393l.076-.022c-2.138.806-3.659 2.537-4.233 4.821-.124.491-.128.572-.128 2.56 0 2.283-.013 2.197.375 2.584.311.312.476.375.984.375s.674-.062.986-.375c.378-.378.371-.331.407-2.398.03-1.655.045-1.912.143-2.274a4.029 4.029 0 0 1 2.035-2.489l.023-.011c.806-.416.508-.399 7.074-.399 5.493 0 5.865.006 6.261.098 1.331.312 2.509 1.457 2.865 2.786.102.378.119.619.149 2.289.038 2.067.03 2.02.407 2.398.312.312.478.375.986.375s.674-.062.984-.375c.388-.388.375-.301.375-2.584 0-1.988-.004-2.069-.128-2.56-.331-1.318-.902-2.34-1.816-3.255-.9-.9-1.865-1.448-3.176-1.8l-.533-.143-6.214-.008c-3.416-.006-6.274 0-6.347.013z"/>
    </symbol>
    <symbol id="icon-instagram-converted" viewBox="0 0 32 32">
      <path d="M8.507 1.391a7.864 7.864 0 0 0-4.863 2.347l-.002.002a7.754 7.754 0 0 0-2.254 4.812l-.002.03c-.065.672-.065 14.165 0 14.837a7.807 7.807 0 0 0 2.353 4.938l.002.002a7.754 7.754 0 0 0 4.812 2.254l.03.002c.672.065 14.165.065 14.837 0a7.77 7.77 0 0 0 4.841-2.256 7.793 7.793 0 0 0 2.352-4.91l.002-.03c.065-.672.065-14.165 0-14.837a7.811 7.811 0 0 0-2.352-4.938l-.002-.002a7.754 7.754 0 0 0-4.812-2.254l-.03-.002c-.619-.06-14.299-.056-14.912.005zm15.19 2.72a5.33 5.33 0 0 1 4.188 4.159l.006.034c.107.529.109.68.109 7.696 0 7.021-.003 7.167-.111 7.697a5.33 5.33 0 0 1-4.159 4.188l-.034.006c-.529.107-.68.109-7.696.109s-7.167-.003-7.696-.109a5.33 5.33 0 0 1-4.188-4.159l-.006-.034c-.108-.531-.111-.676-.111-7.697s.003-7.167.111-7.697a5.341 5.341 0 0 1 4.125-4.183l.035-.006c.485-.103.743-.105 7.695-.109 7.064-.004 7.201-.003 7.732.107zm-.653 3.254c-.44.106-.793.411-.962.812l-.003.009c-.105.271-.08.788.052 1.06.133.276.413.543.692.66.245.103.776.103 1.021 0 .265-.112.568-.389.704-.648.161-.305.161-.879.001-1.183a1.383 1.383 0 0 0-1.515-.709l.009-.002zm-8.217 2.023c-2.503.48-4.48 2.291-5.195 4.759a5.94 5.94 0 0 0-.229 2.084l-.001-.018c.079 1.707.677 3.113 1.849 4.34 1.205 1.261 2.744 1.959 4.508 2.044 3.369.161 6.304-2.219 6.884-5.584.107-.613.077-1.835-.059-2.453-.197-.907-.641-1.899-1.149-2.573a8.69 8.69 0 0 0-1.405-1.412l-.018-.013c-.449-.341-1.511-.868-2.04-1.013-1.024-.281-2.205-.341-3.147-.16zm1.962 2.64c1.052.2 2.011.839 2.62 1.747.431.643.679 1.596.627 2.412-.064.997-.447 1.827-1.183 2.567-.413.416-.556.521-.988.729-.712.344-1.075.429-1.812.427-1.155-.003-1.988-.349-2.801-1.161-.811-.811-1.156-1.641-1.164-2.801-.004-.744.081-1.108.427-1.811a4.122 4.122 0 0 1 2.257-1.97l.029-.009a3.781 3.781 0 0 1 1.236-.204c.266 0 .527.027.778.078l-.025-.004z"/>
    </symbol>
    <symbol id="icon-twitter-converted" viewBox="0 0 32 32">
      <path d="M21.12 2.699c-1.139.208-1.597.345-2.32.691-.881.423-1.711 1.045-2.281 1.713C15.403 6.41 14.8 7.852 14.69 9.478l-.037.545-.247-.029c-2.089-.245-3.967-.879-5.401-1.824-1.365-.901-3.084-2.576-4.341-4.231-.464-.611-.585-.713-.972-.825a1.254 1.254 0 0 0-1.353.401l-.002.002c-.371.433-.816 2.176-1.092 4.272-.131 1.001-.131 3.52 0 4.496.248 1.852.669 3.263 1.429 4.783 1.073 2.147 2.591 3.856 4.687 5.277l.533.361-.413.175c-1.624.709-3.517 1.121-5.506 1.121-.969.004-1.141.04-1.485.312-.452.359-.596 1.065-.331 1.62.161.336.316.457 1.087.852 2.491 1.276 4.801 1.999 7.369 2.308 1 .121 2.995.164 3.927.084 1.737-.148 3.2-.451 4.66-.963 4.72-1.656 8.313-4.949 10.36-9.495 1.125-2.501 1.692-5.183 1.745-8.279l.02-1.107.331-.404c.777-.951 1.528-2.261 1.909-3.331.236-.661.435-1.384.435-1.579 0-.551-.409-1.121-.911-1.271-.553-.164-.732-.117-1.596.424a22.78 22.78 0 0 1-1.067.627c-.464.248-1.444.679-1.544.679-.031 0-.276-.167-.544-.371-.795-.603-1.821-1.063-2.927-1.309-.387-.085-1.988-.156-2.292-.101zm1.743 2.712c1.029.219 1.753.621 2.507 1.392.397.407.579.507.983.544.284.025.765-.081 1.312-.292.128-.048-.032.165-.539.724-.525.579-.611.816-.52 1.457.16 1.145-.008 3.305-.397 5.111-.557 2.536-1.634 4.76-3.12 6.648l.027-.035c-.465.588-1.736 1.851-2.315 2.3-1.041.808-2.456 1.639-3.573 2.1-1.347.565-2.91.97-4.542 1.139l-.072.006c-.797.077-2.567.064-3.413-.025-.892-.095-2.08-.303-2.48-.435-.044-.015.196-.119.533-.229a18.166 18.166 0 0 0 3.68-1.736c.651-.405.877-.636.988-1.007.1-.337.1-.54-.003-.84-.145-.428-.327-.583-1.155-.993-3.939-1.949-6.06-4.657-6.783-8.653-.161-.895-.211-1.697-.179-2.959.028-1.085.061-1.507.172-2.144l.029-.171.464.483c1.327 1.377 2.948 2.632 4.219 3.267 2.085 1.04 4.099 1.545 6.445 1.615.947.028 1.107.02 1.321-.061.307-.112.554-.327.705-.601l.003-.007c.144-.247.145-.256.179-1.555.029-1.116.052-1.365.151-1.707a4.732 4.732 0 0 1 3.518-3.329l.031-.006c.432-.095 1.379-.096 1.823-.001z"/>
    </symbol>
    <symbol id="icon-x-close" viewBox="0 0 32 32">
      <path d="M7.533 6.756c-.305.108-.675.485-.781.799a1.285 1.285 0 0 0 .004.912l-.003-.009c.08.239.42.596 3.719 3.903l3.632 3.64-3.632 3.64c-3.299 3.307-3.639 3.664-3.719 3.903a1.719 1.719 0 0 0-.086.452v.005c0 .54.412 1.101.92 1.252.344.103.483.103.844-.004.28-.081.407-.201 3.929-3.719L16 17.897l3.64 3.633c3.523 3.517 3.649 3.637 3.929 3.719.361.107.5.107.844.004a1.34 1.34 0 0 0 .839-.839c.103-.344.103-.483-.004-.844-.081-.28-.201-.407-3.719-3.929l-3.633-3.64 3.633-3.64c3.517-3.523 3.637-3.649 3.719-3.929.107-.361.107-.5.004-.844-.151-.508-.712-.92-1.252-.92-.107 0-.312.039-.457.087-.239.08-.596.42-3.903 3.719L16 14.106l-3.64-3.632C9.053 7.175 8.696 6.835 8.457 6.755a1.383 1.383 0 0 0-.933.005l.01-.003z"/>
    </symbol>
    <symbol id="icon-Ellipse-1-converted" viewBox="0 0 32 32">
      <path d="M14.852 4.056a12.193 12.193 0 0 0-6.013 2.327l.033-.023a15.408 15.408 0 0 0-2.488 2.481l-.024.031a11.926 11.926 0 0 0-2.347 7.133c0 2.198.59 4.259 1.621 6.032l-.031-.057c.66 1.152 1.808 2.496 2.848 3.336 1.668 1.348 3.664 2.22 5.844 2.56.844.128 2.564.128 3.408 0a12.222 12.222 0 0 0 5.867-2.578l-.023.018c.612-.496 1.592-1.52 2.072-2.164a11.753 11.753 0 0 0 1.98-4.14c.288-1.124.368-1.772.368-3.012s-.08-1.888-.368-3.012a11.746 11.746 0 0 0-2.002-4.17l.021.03a15.279 15.279 0 0 0-2.052-2.147l-.02-.017a12.113 12.113 0 0 0-5.719-2.539l-.069-.009a16.615 16.615 0 0 0-2.956-.077l.047-.002z"/>
    </symbol>
    <symbol id="icon-scroll" viewBox="0 0 32 32">
      <path fill="#fd9222" d="M16.947 17.867a1.334 1.334 0 0 1-1.894 0l-6.107-6.12a1.334 1.334 0 1 0-1.894 1.88l6.12 6.12a4.001 4.001 0 0 0 5.654 0l6.12-6.12a1.337 1.337 0 0 0-.434-2.172 1.331 1.331 0 0 0-1.46.292l-6.107 6.12z" style="fill:var(--color1, #fd9222)"/>
    </symbol>
    <symbol id="icon-brgr" viewBox="0 0 36 32">
      <path d="M1.199 4.002a2.4 2.4 0 0 1 2.4-2.4h28.8a2.4 2.4 0 1 1 0 4.8h-28.8a2.4 2.4 0 0 1-2.4-2.4zM1.199 16.002a2.4 2.4 0 0 1 2.4-2.4h28.8a2.4 2.4 0 1 1 0 4.8h-28.8a2.4 2.4 0 0 1-2.4-2.4zM1.199 28.002a2.4 2.4 0 0 1 2.4-2.4h28.8a2.4 2.4 0 1 1 0 4.8h-28.8a2.4 2.4 0 0 1-2.4-2.4z"/>
    </symbol>
    <symbol id="icon-chocolate" viewBox="0 0 32 32">
      <path fill="#fcf1e0" d="M3.944 20.076 14.721 2.652l.64-.674 8.236 5.491.056 3.314 2.01 3.28-8.88 14.077-12.839-8.063z" style="fill:var(--color2, #fcf1e0)"/>
      <path fill="none" stroke="#fd9222" stroke-linecap="round" stroke-linejoin="round" stroke-width="2.667" d="M21.635 23.88 7.45 15.016m3.911-6.417 14.186 8.864M10.63 25.864l11.736-19.25m4.81 8.175c-3.04-1.899-4.234-3.384-2.278-6.592l-9.626-6.015-11.736 19.25 14.185 8.864 9.454-15.507z" style="stroke:var(--color1, #fd9222)"/>
    </symbol>
    <symbol id="icon-Group-1" viewBox="0 0 32 32">
      <path fill="#fd9222" d="M16 .762C7.619.762.762 7.619.762 16S7.619 31.238 16 31.238 31.238 24.381 31.238 16 24.381.762 16 .762zm0 27.428C9.295 28.19 3.81 22.704 3.81 16S9.296 3.809 16 3.809c6.705 0 12.191 5.486 12.191 12.191S22.705 28.19 16 28.19z" style="fill:var(--color1, #fd9222)"/>
      <path fill="#fd9222" d="M17.981 14.476h-3.962c-.762 0-1.371-.61-1.371-1.371s.61-1.371 1.371-1.371h5.638c.914 0 1.524-.61 1.524-1.524s-.61-1.524-1.524-1.524h-2.133V7.315c0-.914-.61-1.524-1.524-1.524s-1.524.61-1.524 1.524v1.371h-.457c-2.438 0-4.419 1.981-4.419 4.419s1.981 4.419 4.419 4.419h3.809c.762 0 1.371.61 1.371 1.371s-.61 1.371-1.371 1.371H12.19c-.914 0-1.524.61-1.524 1.524s.61 1.524 1.524 1.524h2.286v1.371c0 .914.61 1.524 1.524 1.524s1.524-.61 1.524-1.524v-1.371h.457c2.438 0 4.419-1.981 4.419-4.419s-1.981-4.419-4.419-4.419z" style="fill:var(--color1, #fd9222)"/>
    </symbol>
    <symbol id="icon-Group1" viewBox="0 0 32 32">
      <path d="m13.511.472 8.602 8.613.091-.091a.982.982 0 0 1 1.354-.015l.998.998c.349.349.36.88.095 1.25l-.005.008-.163.219 7.04 7.04a1.593 1.593 0 0 1 0 2.263L20.746 31.534a1.593 1.593 0 0 1-2.263 0l-5.082-5.082a.952.952 0 0 1-.7.362.964.964 0 0 1-.736-.282l-2.971-2.971a.98.98 0 0 1-.015-1.354l.007-.008.088-.087L.472 13.51a1.593 1.593 0 0 1 0-2.263L11.249.47a1.593 1.593 0 0 1 2.263 0v.001zm7.522 9.691-2.007-2.006a.676.676 0 0 0-.972 0l-4.091 4.091a.686.686 0 0 0-.204.491.694.694 0 0 0 .204.491l1.999 1.999.697-.697-1.789-1.789 3.669-3.68 1.793 1.799.701-.701zm-5.801 5.797-2.005-2.005a.676.676 0 0 0-.972 0l-4.103 4.103a.676.676 0 0 0 0 .971l2.002 2.002.704-.704-1.794-1.787 3.68-3.669 1.787 1.786.699-.698zM7.797 7.078l4.091 4.091a.667.667 0 0 0 .971-.011l4.091-4.091a.654.654 0 0 0 .206-.48h.011a.703.703 0 0 0-.206-.491L12.87 2.005a.688.688 0 0 0-.982 0L7.797 6.108a.676.676 0 0 0 0 .971zm-5.795 5.794 4.091 4.091a.676.676 0 0 0 .971 0l4.091-4.091a.665.665 0 0 0 .205-.491h.011a.683.683 0 0 0-.206-.491L7.074 7.799a.676.676 0 0 0-.972 0l-4.103 4.103a.676.676 0 0 0 0 .971zm7.924 10.005 2.699 2.701 11.013-14.903-.749-.749L9.926 22.877z" style="fill:var(--color3, #000)"/>
      <path fill="#fd9222" d="m13.511.472 8.602 8.613.091-.091a.982.982 0 0 1 1.354-.015l.998.998c.349.349.36.88.095 1.25l-.005.008-.163.219 7.04 7.04a1.593 1.593 0 0 1 0 2.263L20.746 31.534a1.593 1.593 0 0 1-2.263 0l-5.082-5.082a.952.952 0 0 1-.7.362.964.964 0 0 1-.736-.282l-2.971-2.971a.98.98 0 0 1-.015-1.354l.007-.008.088-.087L.472 13.51a1.593 1.593 0 0 1 0-2.263L11.249.47a1.593 1.593 0 0 1 2.263 0v.001zm7.522 9.691-2.007-2.006a.676.676 0 0 0-.972 0l-4.091 4.091a.686.686 0 0 0-.204.491.694.694 0 0 0 .204.491l1.999 1.999.697-.697-1.789-1.789 3.669-3.68 1.793 1.799.701-.701zm-5.801 5.797-2.005-2.005a.676.676 0 0 0-.972 0l-4.103 4.103a.676.676 0 0 0 0 .971l2.002 2.002.704-.704-1.794-1.787 3.68-3.669 1.787 1.786.699-.698zM7.797 7.078l4.091 4.091a.667.667 0 0 0 .971-.011l4.091-4.091a.654.654 0 0 0 .206-.48h.011a.703.703 0 0 0-.206-.491L12.87 2.005a.688.688 0 0 0-.982 0L7.797 6.108a.676.676 0 0 0 0 .971zm-5.795 5.794 4.091 4.091a.676.676 0 0 0 .971 0l4.091-4.091a.665.665 0 0 0 .205-.491h.011a.683.683 0 0 0-.206-.491L7.074 7.799a.676.676 0 0 0-.972 0l-4.103 4.103a.676.676 0 0 0 0 .971zm7.924 10.005 2.699 2.701 11.013-14.903-.749-.749L9.926 22.877z" style="fill:var(--color1, #fd9222)"/>
    </symbol>
    <symbol id="icon-la_utensil-spoon" viewBox="0 0 32 32">
      <path fill="#fd9222" d="M15.451 14.106a5.154 5.154 0 0 1-1.177-3.282c0-4.324 5.181-8.642 10.362-8.642a5.183 5.183 0 0 1 5.181 5.182c0 5.182-4.318 10.364-8.646 10.364a5.151 5.151 0 0 1-3.281-1.177L5.132 29.312a1.73 1.73 0 0 1-2.445-2.445l12.764-12.761z" style="fill:var(--color1, #fd9222)"/>
    </symbol>
    <symbol id="icon-x" viewBox="0 0 32 32">
      <path fill="none" stroke="#fff" stroke-linecap="round" stroke-linejoin="round" stroke-width="2.286" d="M22.666 9.333 9.333 22.666m0-13.333 13.333 13.333" style="stroke:var(--color4, #fff)"/>
    </symbol>
  </defs>
</svg>
